<mxfile host="app.diagrams.net" modified="2022-04-21T02:08:21.920Z" agent="5.0 (Macintosh; Intel Mac OS X 10_15_7) AppleWebKit/537.36 (KHTML, like Gecko) Chrome/100.0.4896.127 Safari/537.36" etag="zdaEXiGR-KK2FVuTs4Ol" version="17.4.5" type="github">
  <diagram id="Ah3u9-YwMM3J3fxS9JHa" name="Page-1">
    <mxGraphModel dx="946" dy="557" grid="1" gridSize="10" guides="1" tooltips="1" connect="1" arrows="1" fold="1" page="1" pageScale="1" pageWidth="827" pageHeight="1169" math="0" shadow="0">
      <root>
        <mxCell id="0" />
        <mxCell id="1" parent="0" />
        <mxCell id="NZ0ZN0IfbOYBqgOAHwq9-8" value="" style="rounded=0;whiteSpace=wrap;html=1;dashed=1;" vertex="1" parent="1">
          <mxGeometry x="175" y="75" width="120" height="60" as="geometry" />
        </mxCell>
        <mxCell id="NZ0ZN0IfbOYBqgOAHwq9-4" style="edgeStyle=orthogonalEdgeStyle;rounded=0;orthogonalLoop=1;jettySize=auto;html=1;exitX=1;exitY=0.5;exitDx=0;exitDy=0;entryX=0;entryY=0.5;entryDx=0;entryDy=0;" edge="1" parent="1" source="0eeVL74wy0feNlC6x5A--1" target="0eeVL74wy0feNlC6x5A--2">
          <mxGeometry relative="1" as="geometry" />
        </mxCell>
        <mxCell id="NZ0ZN0IfbOYBqgOAHwq9-5" style="edgeStyle=orthogonalEdgeStyle;rounded=0;orthogonalLoop=1;jettySize=auto;html=1;exitX=1;exitY=0.5;exitDx=0;exitDy=0;entryX=0;entryY=0.5;entryDx=0;entryDy=0;" edge="1" parent="1" source="0eeVL74wy0feNlC6x5A--1" target="0eeVL74wy0feNlC6x5A--3">
          <mxGeometry relative="1" as="geometry" />
        </mxCell>
        <mxCell id="NZ0ZN0IfbOYBqgOAHwq9-18" style="edgeStyle=orthogonalEdgeStyle;rounded=0;orthogonalLoop=1;jettySize=auto;html=1;entryX=0;entryY=0.5;entryDx=0;entryDy=0;" edge="1" parent="1" source="0eeVL74wy0feNlC6x5A--1" target="NZ0ZN0IfbOYBqgOAHwq9-14">
          <mxGeometry relative="1" as="geometry" />
        </mxCell>
        <mxCell id="NZ0ZN0IfbOYBqgOAHwq9-19" style="edgeStyle=orthogonalEdgeStyle;rounded=0;orthogonalLoop=1;jettySize=auto;html=1;entryX=0;entryY=0.5;entryDx=0;entryDy=0;" edge="1" parent="1" source="0eeVL74wy0feNlC6x5A--1" target="0eeVL74wy0feNlC6x5A--4">
          <mxGeometry relative="1" as="geometry" />
        </mxCell>
        <mxCell id="0eeVL74wy0feNlC6x5A--1" value="在线教学系统" style="rounded=0;whiteSpace=wrap;html=1;" parent="1" vertex="1">
          <mxGeometry y="130" width="110" height="40" as="geometry" />
        </mxCell>
        <mxCell id="0eeVL74wy0feNlC6x5A--2" value="信息维护" style="rounded=0;whiteSpace=wrap;html=1;" parent="1" vertex="1">
          <mxGeometry x="190" width="90" height="30" as="geometry" />
        </mxCell>
        <mxCell id="0eeVL74wy0feNlC6x5A--3" value="学生维护" style="rounded=0;whiteSpace=wrap;html=1;" parent="1" vertex="1">
          <mxGeometry x="190" y="90" width="90" height="30" as="geometry" />
        </mxCell>
        <mxCell id="0eeVL74wy0feNlC6x5A--4" value="教学历史" style="rounded=0;whiteSpace=wrap;html=1;" parent="1" vertex="1">
          <mxGeometry x="190" y="260" width="90" height="30" as="geometry" />
        </mxCell>
        <mxCell id="NZ0ZN0IfbOYBqgOAHwq9-9" value="（教师功能）" style="text;html=1;strokeColor=none;fillColor=none;align=center;verticalAlign=middle;whiteSpace=wrap;rounded=0;dashed=1;" vertex="1" parent="1">
          <mxGeometry x="280" y="90" width="90" height="30" as="geometry" />
        </mxCell>
        <mxCell id="NZ0ZN0IfbOYBqgOAHwq9-11" style="edgeStyle=orthogonalEdgeStyle;rounded=0;orthogonalLoop=1;jettySize=auto;html=1;entryX=0;entryY=0.5;entryDx=0;entryDy=0;" edge="1" parent="1" source="NZ0ZN0IfbOYBqgOAHwq9-14" target="NZ0ZN0IfbOYBqgOAHwq9-15">
          <mxGeometry relative="1" as="geometry" />
        </mxCell>
        <mxCell id="NZ0ZN0IfbOYBqgOAHwq9-12" style="edgeStyle=orthogonalEdgeStyle;rounded=0;orthogonalLoop=1;jettySize=auto;html=1;exitX=1;exitY=0.5;exitDx=0;exitDy=0;entryX=0;entryY=0.5;entryDx=0;entryDy=0;" edge="1" parent="1" source="NZ0ZN0IfbOYBqgOAHwq9-14" target="NZ0ZN0IfbOYBqgOAHwq9-16">
          <mxGeometry relative="1" as="geometry" />
        </mxCell>
        <mxCell id="NZ0ZN0IfbOYBqgOAHwq9-13" style="edgeStyle=orthogonalEdgeStyle;rounded=0;orthogonalLoop=1;jettySize=auto;html=1;exitX=1;exitY=0.5;exitDx=0;exitDy=0;entryX=0;entryY=0.5;entryDx=0;entryDy=0;" edge="1" parent="1" source="NZ0ZN0IfbOYBqgOAHwq9-14" target="NZ0ZN0IfbOYBqgOAHwq9-17">
          <mxGeometry relative="1" as="geometry" />
        </mxCell>
        <mxCell id="NZ0ZN0IfbOYBqgOAHwq9-14" value="在线教学" style="rounded=0;whiteSpace=wrap;html=1;" vertex="1" parent="1">
          <mxGeometry x="190" y="180" width="90" height="30" as="geometry" />
        </mxCell>
        <mxCell id="NZ0ZN0IfbOYBqgOAHwq9-15" value="准备阶段" style="rounded=0;whiteSpace=wrap;html=1;" vertex="1" parent="1">
          <mxGeometry x="340" y="140" width="90" height="30" as="geometry" />
        </mxCell>
        <mxCell id="NZ0ZN0IfbOYBqgOAHwq9-16" value="教学阶段" style="rounded=0;whiteSpace=wrap;html=1;" vertex="1" parent="1">
          <mxGeometry x="340" y="180" width="90" height="30" as="geometry" />
        </mxCell>
        <mxCell id="NZ0ZN0IfbOYBqgOAHwq9-17" value="结束阶段" style="rounded=0;whiteSpace=wrap;html=1;" vertex="1" parent="1">
          <mxGeometry x="340" y="220" width="90" height="30" as="geometry" />
        </mxCell>
      </root>
    </mxGraphModel>
  </diagram>
</mxfile>
